<svg xmlns="http://www.w3.org/2000/svg" viewBox="0 0 409 409"><path d="M402.2 79h-27.3V65.3a6.74 6.74 0 0 0-6.8-6.8H334a6.81 6.81 0 0 0-6.8 6.8V113h-27.3V85.8a6.81 6.81 0 0 0-6.8-6.8h-20.5a6.81 6.81 0 0 0-6.8 6.8V113H150V85.8a6.81 6.81 0 0 0-6.8-6.8h-20.5a6.81 6.81 0 0 0-6.8 6.8V113H81.8V65.3a6.81 6.81 0 0 0-6.8-6.8H40.9a6.81 6.81 0 0 0-6.8 6.8V79H6.8A6.81 6.81 0 0 0 0 85.8V154a6.81 6.81 0 0 0 6.8 6.8h27.3v13.6a6.81 6.81 0 0 0 6.8 6.8H75a6.81 6.81 0 0 0 6.8-6.8v-47.7h34.1v116.6H98.2c-12.8 0-23.2 10.4-23.2 23.2s10.4 23.2 23.2 23.2h17.7v21.1H34.1a6.81 6.81 0 0 0-6.8 6.8v27.3a6.74 6.74 0 0 0 6.8 6.8h347.7a6.81 6.81 0 0 0 6.8-6.8v-27.3a6.81 6.81 0 0 0-6.8-6.8H300v-21.1h10.9c12.8 0 23.2-10.4 23.2-23.2s-10.4-23.2-23.2-23.2H300V126.7h27.3v47.7a6.81 6.81 0 0 0 6.8 6.8h34.1a6.81 6.81 0 0 0 6.8-6.8v-13.6h27.3a6.81 6.81 0 0 0 6.8-6.8V85.8C409 82 406 79 402.2 79zM13.6 147.1V92.6h20.5v54.5H13.6zm54.6 20.5H47.7V72.1h20.5v95.5zm197.6-40.9v116.6H150V126.7h115.8zM129.5 92.6h6.8v150.6h-6.8V92.6zm0 197h6.8v21.1h-6.8v-21.1zm81.8 21.1v-21.1h54.5v21.1h-54.5zm-13.6 0H150v-21.1h47.7v21.1zM40.9 338v-13.6h156.8V338H40.9zm334 0H211.3v-13.6h163.6V338zm-88.6-27.3h-6.8v-21.1h6.8v21.1zm34.1-44.3c0 5.3-4.3 9.6-9.6 9.6H98.2c-5.3 0-9.6-4.3-9.6-9.6s4.3-9.6 9.6-9.6h212.6c5.3.1 9.6 4.4 9.6 9.6zm-40.9-23.2V92.6h6.8v150.6h-6.8zm81.8-75.6h-20.5V72.1h20.5v95.5zm34.1-20.5h-20.5V92.6h20.5v54.5z" fill="#212f3d"/><path d="M13.6 92.6h20.5v54.5H13.6zm34.1-20.5h20.5v95.4H47.7zm293.1 0h20.5v95.4h-20.5zm34.1 20.5h20.5v54.5h-20.5z" fill="#4ceecf"/></svg>