<svg xmlns="http://www.w3.org/2000/svg" viewBox="0 0 512 512"><path d="M208.4 239.6c5.2 0 9.5-4.2 9.5-9.5v-34.7c0-1.4-.1-2.8-.2-4.2l2.9 2.9a9.39 9.39 0 0 0 6.7 2.8c2.4 0 4.9-.9 6.7-2.8l3.1-3.1c-.1 1.4-.2 2.9-.2 4.4v34.7c0 5.2 4.3 9.5 9.5 9.5h34.7c33.2 0 60.2-27 60.2-60.2v-34.8c0-5.3-4.3-9.5-9.5-9.5h-34.7c-7.9 0-15.4 1.6-22.3 4.3 4.1-19.3-1.3-40.2-16.3-55.1L234 59.8a9.48 9.48 0 0 0-13.4 0L196 84.3c-14.9 14.9-20.3 35.8-16.3 55-6.9-2.7-14.3-4.3-22.1-4.3h-34.7c-5.2 0-9.5 4.2-9.5 9.5v34.8c0 33.2 27 60.2 60.2 60.2l34.8.1z" fill="#4ceecf"/><path d="M208.5 239.6c5.2 0 9.5-4.2 9.5-9.5v-34.7c0-1.4-.1-2.8-.2-4.2l2.9 2.9a9.39 9.39 0 0 0 6.7 2.8c2.4 0 4.9-.9 6.7-2.8l3.1-3.1c-.1 1.4-.2 2.9-.2 4.4v34.7c0 5.2 4.3 9.5 9.5 9.5h34.7c33.2 0 60.2-27 60.2-60.2v-34.8c0-5.3-4.3-9.5-9.5-9.5h-34.7c-7.9 0-15.4 1.6-22.3 4.3 4.1-19.3-1.3-40.2-16.3-55.1L234 59.7a9.48 9.48 0 0 0-13.4 0L196 84.3c-14.9 14.9-20.3 35.8-16.3 55-6.9-2.7-14.3-4.3-22.1-4.3H123c-5.2 0-9.5 4.2-9.5 9.5v34.8c0 33.2 27 60.2 60.2 60.2l34.8.1zm113.9-85.5v25.3c0 22.7-18.5 41.2-41.2 41.2H256v-25.2c0-22.7 18.5-41.2 41.2-41.2h25.2v-.1zM209.5 97.8l17.9-17.9 17.9 17.9c16.1 16.1 16.1 42.2 0 58.3L227.4 174l-17.9-17.9c-16-16.1-16-42.3 0-58.3zm-77 81.6v-25.3h25.2c22.7 0 41.2 18.5 41.2 41.2v25.2h-25.2c-22.7.1-41.2-18.4-41.2-41.1zm123.5 134c-15.7 0-28.5 12.8-28.5 28.5h19c0-5.2 4.3-9.5 9.5-9.5s9.5 4.3 9.5 9.5h19c-.1-15.7-12.8-28.5-28.5-28.5zm75.9 9.5c-15.7 0-28.5 12.8-28.5 28.5h19c0-5.2 4.3-9.5 9.5-9.5s9.5 4.3 9.5 9.5h19c0-15.7-12.8-28.5-28.5-28.5zm71.4-36.1l32.8-122.9c.2-.8.3-1.6.3-2.4 0-10.5-8.5-19-19-19h-19c-3.5 0-6.7 1-9.5 2.6V9.5c0-5.3-4.3-9.5-9.5-9.5H18.5C13.3 0 9 4.2 9 9.5v436.9c0 3.8 2.3 7.2 5.7 8.7L81 483.6c1.2.5 2.5.8 3.8.8h145.8c27.5 17.4 60 27.6 94.9 27.6 98.4 0 178.4-80 178.4-178.4v-1c-.1-28.4-58.7-40.6-100.6-45.8zm-4.9-125.3h18.7l-35 131.1-5.7 21.7c-1.3 5.1 1.7 10.3 6.8 11.6.8.2 1.6.3 2.4.3 4.2 0 8.1-2.8 9.2-7.1l3.6-13.8c64.8 7.6 86.4 22.7 86.4 27.2 0 9.3-54.2 31.3-159.4 31.3S166 341.9 166 332.5s54.2-31.3 159.4-31.3c5.6 0 11 .2 16.5.4l-1.8 7.1c-1.3 5.1 1.8 10.2 6.9 11.5.8.2 1.6.3 2.3.3 4.2 0 8.1-2.9 9.2-7.2l4.7-18.5 34.9-131c.2-.7.3-1.5.3-2.3zm-323.1 299L28 440.1V19h47.3v441.5zm130 4.9H94.5V19h275.4v176.8l-23.2 86.8-21.4-.4c-61.7 0-178.4 10.5-178.4 50.3v1c0 6.3.3 12.5 1 18.6.2 1.8.6 3.6.8 5.4.6 4.3 1.1 8.5 2 12.7.5 2.4 1.2 4.6 1.8 7 .9 3.5 1.7 7 2.8 10.4.9 2.7 1.9 5.3 2.9 8 1.1 2.9 2.1 5.8 3.3 8.6 1.2 2.9 2.7 5.7 4.1 8.5 1.2 2.5 2.4 5 3.7 7.4 1.6 2.9 3.3 5.6 5.1 8.4 1.4 2.2 2.8 4.5 4.3 6.6 1.8 2.7 3.8 5.2 5.8 7.8a161.16 161.16 0 0 0 5.2 6.4 193.75 193.75 0 0 0 6.1 6.7c2.1 2.2 4.2 4.4 6.5 6.5 1.1.9 2 2 3 2.9zM325.4 493c-32.5 0-62.7-9.8-87.9-26.5-1.2-.8-2.4-1.7-3.5-2.5-2.7-1.9-5.4-3.9-8-6-.9-.8-1.9-1.5-2.8-2.3-3.4-2.8-6.6-5.8-9.8-8.9-.6-.6-1.1-1.2-1.7-1.8a137.93 137.93 0 0 1-8.9-9.8c-.2-.2-.4-.4-.5-.6-3-3.7-5.9-7.5-8.6-11.5-.3-.5-.6-1-1-1.4-5.3-7.9-9.8-16.3-13.7-25.1-.3-.7-.6-1.5-.9-2.2-1.8-4.3-3.4-8.7-4.8-13.1-.2-.6-.3-1.1-.5-1.7-1.2-4.1-2.3-8.2-3.2-12.4l-.6-2.5c-.4-2.2-.7-4.4-1-6.6 36.5 18.9 111.8 24.7 157.3 24.7s120.9-5.7 157.3-24.7C470.8 434.4 404.9 493 325.4 493z" fill="#212f3d"/></svg>