<svg xmlns="http://www.w3.org/2000/svg" viewBox="0 0 496 496"><path d="M318.5 171.6l3.8-2.8-.7-4.7c-.7-5.1.9-10.1 4.4-13.6 3.6-3.6 8.5-5.2 13.6-4.4l4.7.7 2.8-3.8c6.2-8.2 19.4-8.2 25.5 0l2.8 3.8 4.7-.7c5.1-.7 10.1.9 13.6 4.4 3.6 3.6 5.2 8.5 4.4 13.6l-.7 4.7 3.8 2.8c4.1 3.1 6.5 7.7 6.5 12.8s-2.4 9.7-6.5 12.8l-3.8 2.8.7 4.7c.7 5.1-.9 10.1-4.4 13.6-3.6 3.6-8.5 5.2-13.6 4.4l-4.7-.7-2.8 3.8c-6.2 8.2-19.4 8.2-25.5 0l-2.8-3.8-4.7.7c-5.1.7-10.1-.9-13.6-4.4-3.6-3.6-5.2-8.5-4.4-13.6l.7-4.7-3.8-2.8c-4.1-3.1-6.5-7.7-6.5-12.8s2.4-9.8 6.5-12.8z" fill="#4ceecf"/><path d="M405.9 228.5c5.6-6 8.7-13.7 8.7-21.9 6.1-6 9.4-14 9.4-22.6s-3.4-16.6-9.4-22.6c.1-8.5-3.2-16.6-9.3-22.7s-14.5-9.2-22.7-9.3c-6-6.1-14-9.4-22.6-9.4s-16.6 3.4-22.6 9.4c-8.5.1-16.6 3.2-22.7 9.3s-9.4 14.2-9.3 22.7c-.2.2-.3.3-.4.5-10.7-.9-22.3-1.5-34.3-1.7l20.7-124.1c1.9-11.6 11.9-20.1 23.7-20.1H392V0h-76.9c-19.6 0-36.2 14.1-39.5 33.4l-21 126.6c-13.2 0-24.8.3-35.1.8L161 86.5a39.72 39.72 0 0 0 7-22.5c22.1 0 40-17.9 40-40V0H64v136h24c19.3 0 35.5-13.8 39.2-32h.8c7.9 0 15.2-2.4 21.4-6.3l50.7 64.6c-38.5 3.7-51.5 11.2-55 17.5L80 261.2v19.9c0 78.7 29.2 154.1 82.1 212.3l2.4 2.6h183.1l2.4-2.6c52.9-58.2 82.1-133.6 82.1-212.3v-19.9l-26.2-32.7zM192 24c0 13.2-10.8 24-24 24h-6l-58.7-32H192v8zM88 120h-8V39.4l31.8 58.3c-.9 12.4-11.2 22.3-23.8 22.3zm40-32h-3.2L92 28l60 32.7V64c0 13.2-10.8 24-24 24zm25.2 107.3c12.6 6.7 41 12.7 102.8 12.7 17.1 0 33.9-.7 49-1.9.2.2.3.3.4.5-.1 8.5 3.2 16.6 9.3 22.7s14.2 9.3 22.7 9.3c6 6.1 14 9.4 22.6 9.4s16.6-3.4 22.6-9.4c3.3 0 6.4-.7 9.5-1.6l23.6 29.5c-1.3 16.5-15 29.5-31.8 29.5-10.1 0-19.4-4.7-25.6-13l-6.4-8.6-6.4 8.6c-6.2 8.3-15.5 13-25.6 13s-19.4-4.7-25.6-13l-6.4-8.6-6.4 8.6c-6.2 8.3-15.5 13-25.6 13s-19.4-4.7-25.6-13l-6.4-8.6-6.4 8.6c-6.2 8.3-15.5 13-25.6 13s-19.4-4.7-25.6-13l-6.4-8.6-6.4 8.6c-6.2 8.3-15.5 13-25.6 13-16.8 0-30.5-13-31.8-29.5l57.1-71.2zm165.3-24.1l3.8-2.8-.7-4.7c-.7-5.1.9-10.1 4.4-13.6 3.6-3.6 8.5-5.2 13.6-4.4l4.7.7 2.8-3.8c6.2-8.2 19.4-8.2 25.5 0l2.8 3.8 4.7-.7c5.1-.7 10.1.9 13.6 4.4 3.6 3.6 5.2 8.5 4.4 13.6l-.7 4.7 3.8 2.8c4.1 3.1 6.5 7.7 6.5 12.8s-2.4 9.7-6.5 12.8l-3.8 2.8.7 4.7c.7 5.1-.9 10.1-4.4 13.6-3.6 3.6-8.5 5.2-13.6 4.4l-4.7-.7-2.8 3.8c-6.2 8.2-19.4 8.2-25.5 0l-2.8-3.8-4.7.7c-5.1.7-10.1-.9-13.6-4.4-3.6-3.6-5.2-8.5-4.4-13.6l.7-4.7-3.8-2.8c-4.1-3.1-6.5-7.7-6.5-12.8s2.4-9.7 6.5-12.8zm-21.8 6.1c-.5 2.2-.7 4.4-.7 6.7s.3 4.5.7 6.7c-9.9.7-20.5 1.1-31.3 1.2l2.6-15.8c10 .2 19.6.6 28.7 1.2zm-44.8-1.3l-2.6 15.9c-1.8 0-3.7 0-5.5-.1l-12.1-15.4 20.2-.4zm-39.8 1.5l10.7 13.7c-27.2-1.4-46-4.4-56-7.2 8.7-2.4 23.9-4.9 45.3-6.5zM340.4 480H171.6c-44.5-50.1-70.6-113.2-74.9-179.7A47.46 47.46 0 0 0 128 312c12 0 23.3-4.4 32-12.4 8.7 7.9 20 12.4 32 12.4s23.3-4.4 32-12.4c8.7 7.9 20 12.4 32 12.4s23.3-4.4 32-12.4c8.7 7.9 20 12.4 32 12.4s23.3-4.4 32-12.4c8.7 7.9 20 12.4 32 12.4a47.46 47.46 0 0 0 31.3-11.7c-4.2 66.5-30.4 129.6-74.9 179.7zM123.8 362.3c10.8 36.3 28.5 69.5 52.6 98.8l12.4-10.2c-22.7-27.6-39.4-59-49.6-93.2l-15.4 4.6zm8.1-35.7l-15.8 2.7c.9 5.5 2.1 11 3.3 16.5l15.6-3.6c-1.2-5.2-2.2-10.3-3.1-15.6zM360 208c13.2 0 24-10.8 24-24s-10.8-24-24-24-24 10.8-24 24 10.8 24 24 24zm0-32c4.4 0 8 3.6 8 8s-3.6 8-8 8-8-3.6-8-8 3.6-8 8-8z" fill="#212f3d"/></svg>