<svg xmlns="http://www.w3.org/2000/svg" viewBox="0 0 511 511"><path d="M257.1 356.1c-55 0-99.8-44.8-99.8-99.8s44.8-99.8 99.8-99.8 99.8 44.8 99.8 99.8c-.1 55-44.8 99.8-99.8 99.8z" fill="#4ceecf"/><path d="M508.3 227c-.8-7.2-4.6-13.9-10.3-18.3L467.5 185l11.4-37.7c2.1-7 1.2-14.7-2.4-21.1-3.7-6.4-9.9-11-17.1-12.7l-38.3-8.9-4.9-39c-.9-7.3-4.9-14-10.8-18.3-6-4.3-13.5-6-20.7-4.6L346.2 50l-20.3-33.6C318.8 4.7 304 .3 291.3 6.1c-.8.4-1.6.8-2.3 1.3l-33.5 23.3-32.3-22.4c-6-4.2-13.6-5.7-20.8-4.2s-13.5 6-17.3 12.3L164.8 50l-38.6-7.4c-7.2-1.4-14.8.3-20.7 4.6-6 4.3-9.9 11-10.8 18.3l-4.9 39-40.3 9.4-1.6.5-.6.2C34.4 120.3 28 134 32 147.2l11.4 37.7-31.6 24.6-1.6 1.4-.4.4c-9.3 10.2-9.7 25.6-.9 35.9L33.7 277l-20 36.3-.9 2.1c-4.4 13.1 1.6 27.4 13.9 33.2l35.6 16.7-3.3 39.2c-.6 7.3 1.8 14.7 6.8 20.1 4.9 5.5 12 8.7 19.3 8.8l39.3.8 12.9 37.1c2.4 7 7.6 12.7 14.4 15.6 6.7 3 14.5 3.1 21.2.2l36.2-15.3 28.3 30.2 1.3 1.1.5.3c4.8 3.5 10.5 5.4 16.4 5.4 7.4 0 14.5-3.1 19.5-8.4l26.9-28.7 36.2 15.3c6.8 2.9 14.5 2.8 21.2-.2s12-8.7 14.4-15.6l12.9-37.1 41.4-.8 1.7-.2.6-.1c13.6-2.8 22.9-15.1 21.8-28.6l-3.3-39.2 35.6-16.7c6.7-3.1 11.8-8.9 14.1-15.9s1.5-14.7-2-21.1l-19-34.5 24.8-29.7c4.8-5.6 7-12.9 6.3-20.2l-.4-.1zm-54.5 39c-4 4.8-4.7 11.6-1.7 17.1l23.2 42-43.5 20.4c-5.7 2.7-9.2 8.7-8.7 15l4.1 47.8-48 1c-6.3.1-11.9 4.2-14 10.2l-15.7 45.4-44.2-18.6c-5.8-2.4-12.6-1-16.9 3.6l-32.8 35-32.8-35c-2.8-3-6.9-4.8-11.1-4.8-2 0-4 .4-5.8 1.2l-44.2 18.6-15.7-45.3c-2.1-6-7.7-10.1-14-10.2l-48-1 4.1-47.8c.5-6.3-2.9-12.3-8.7-15l-43.5-20.4 23.2-42c3-5.5 2.3-12.3-1.7-17.1l-30.5-36.4 37.3-29c5-3.8 7.1-10.4 5.3-16.4l-13.9-45.9 46.8-10.9c6.1-1.4 10.8-6.6 11.6-12.9l6-47.6 47.2 9c6.2 1.2 12.5-1.6 15.8-7l24.8-41.1 39.4 27.4c5.2 3.6 12.1 3.6 17.3 0l39.4-27.4L328.7 69c3.3 5.4 9.6 8.2 15.8 7.1l47.1-9 6 47.6c.8 6.3 5.4 11.4 11.6 12.9l46.8 10.9-13.9 45.9c-1.8 6 .3 12.6 5.3 16.4l37.3 29.1-30.9 36.1zM257.1 131.5c-68.8 0-124.7 56-124.7 124.7 0 68.8 56 124.7 124.7 124.7 68.8 0 124.8-56 124.8-124.7-.1-68.7-56.1-124.7-124.8-124.7zm0 224.6c-55 0-99.8-44.8-99.8-99.8s44.8-99.8 99.8-99.8 99.8 44.8 99.8 99.8c-.1 55-44.8 99.8-99.8 99.8zm47.1-141.2c-3.3 0-6.5 1.3-8.8 3.7l-60.9 60.9-17.8-17.8c-2.4-2.4-5.6-3.6-8.8-3.6s-6.4 1.2-8.8 3.6-3.7 5.5-3.7 8.8 1.3 6.5 3.7 8.8l26.6 26.6c2.4 2.4 5.5 3.7 8.8 3.7s6.5-1.3 8.8-3.7l69.7-69.7c4.9-4.9 4.9-12.8 0-17.6-2.3-2.4-5.4-3.7-8.8-3.7zm10.6 1.9c-2.8-2.8-6.6-4.4-10.6-4.4s-7.8 1.6-10.6 4.4l-59.1 59.1-16-16c-2.9-2.9-6.8-4.4-10.6-4.4s-7.7 1.5-10.6 4.4c-2.8 2.8-4.4 6.6-4.4 10.6s1.6 7.8 4.4 10.6l26.6 26.6c2.8 2.8 6.6 4.4 10.6 4.4s7.8-1.6 10.6-4.4l69.7-69.7c5.9-5.9 5.9-15.4 0-21.2z" fill="#212f3d"/></svg>