<svg xmlns="http://www.w3.org/2000/svg" viewBox="0 0 512 512"><path d="M335.7 409.9l43.6-42.5c6.8-6.7 9.2-16.4 6.3-25.5a24.41 24.41 0 0 0-20.1-16.9l-18.8-2.7v-25.6l19.1-3.8v11.2c0 2.8 1.1 5.4 3.1 7.4s4.6 3.1 7.4 3.1a10.5 10.5 0 0 0 10.5-10.5v-67.5c0-16.6-9.8-31.9-25-38.7l-60-27.3c-2-.9-3.2-2.9-3.2-5v-18.7c15.3-12.7 24-31.3 24-51.2V63.6c0-26.2-8.8-44-9.1-44.8-1.8-3.6-5.4-5.8-9.4-5.8h-60.5c-7.5 0-14.9 2.5-20.9 7.1-11.7 1.1-33.3 10.6-33.3 39v36.6c0 19.9 8.7 38.4 24 51.2v18.7c0 2.2-1.3 4.1-3.2 5l-60 27.3c-15.2 6.9-25 22.1-25 38.7v67.5a10.5 10.5 0 0 0 21 0v-16.6l19.1 7.6v27.1l-18.8 2.7c-9.4 1.4-17.1 7.9-20.1 16.9-2.9 9.1-.5 18.8 6.3 25.5l43.6 42.5-10.3 60c-1.6 9.4 2.2 18.7 9.9 24.3 4.4 3.2 9.5 4.8 14.6 4.8 4 0 7.9-1 11.6-2.9l53.8-28.3 53.8 28.3c3.6 1.9 7.6 2.9 11.6 2.9 5.3 0 10.3-1.7 14.6-4.8 7.7-5.6 11.5-14.9 9.9-24.3l-10.1-59.9zM234.4 165.5v-6.8c6.9 2.4 14.2 3.6 21.6 3.6a66.15 66.15 0 0 0 21.6-3.6v6.8c0 9.7 5.3 18.6 13.8 23.3-5.4 14.9-19.3 24.7-35.3 24.7s-30-9.8-35.3-24.7c8.3-4.7 13.6-13.6 13.6-23.3zm-3.6-122.4c1.9-5.4 7-9 12.8-9h53.3c1.6 4.7 3.7 12.6 4.4 22.4-10.9 3.4-34.9 8.1-62-3.2-4.8-2-10.2-.2-13 4.2-.1.1-5.7 8.8-16 14.9V59.1c0-5 1.1-9 3.3-11.9 1.1 1 2.3 1.8 3.7 2.3 5.6 1.9 11.6-1 13.5-6.4zm-20.4 52.4c13.8-5 23.3-14.1 28.5-20 26.1 8.8 49.3 5.9 62.7 2.6v17.6c0 25.2-20.5 45.6-45.6 45.6s-45.6-20.5-45.6-45.6v-.2zm-23.6 377.9L198 408c.6-3.4-.5-6.9-3-9.3l-47.5-46.3c-1.1-1.1-1.5-2.5-1-4s1.6-2.4 3.1-2.6l65.7-9.5c3.4-.5 6.4-2.6 7.9-5.7l29.4-59.5c.7-1.4 1.9-2.2 3.5-2.2s2.8.8 3.5 2.2l29.4 59.5c1.5 3.1 4.5 5.2 7.9 5.7l65.7 9.5c1.5.2 2.7 1.2 3.1 2.6.5 1.5.1 2.9-1 4L317 398.7c-2.5 2.4-3.6 5.9-3 9.3l11.2 65.4c.3 1.5-.3 2.9-1.5 3.8s-2.7 1-4.1.3l-58.7-30.9c-1.5-.8-3.2-1.2-4.9-1.2s-3.4.4-4.9 1.2l-58.7 30.9c-1.4.7-2.8.6-4.1-.3-1.2-.9-1.8-2.3-1.5-3.8zm149.4-227.9a10.5 10.5 0 0 0-10.5 10.5v63.2l-20.4-3-26.9-54.5c-4.2-8.6-12.8-13.9-22.3-13.9s-18.1 5.3-22.3 13.9l-26.9 54.5-20.4 3V256a10.5 10.5 0 1 0-21 0v16.6l-19.1-7.6v-28.4c0-8.4 5-16.1 12.6-19.6l42.7-19.4c8.8 22.2 30.3 36.9 54.4 36.9s45.7-14.7 54.5-36.9l42.6 19.4c7.7 3.5 12.6 11.2 12.6 19.6v34.9l-19.1 3.8V256c0-5.8-4.8-10.5-10.5-10.5zM156.3 411.2c-2-2-4.6-3.1-7.4-3.2h-.1c-2.8 0-5.4 1.1-7.3 3l-15.6 15.2c-2.5 2.4-3.6 5.9-3 9.3l7.2 41.8-37.5-19.7a10.6 10.6 0 0 0-9.8 0l-37.5 19.7 7.2-41.8c.6-3.4-.5-6.9-3-9.3l-30.3-29.6 41.9-6.1c3.4-.5 6.4-2.6 7.9-5.7l18.8-38 16.3 33.1c2.6 5.2 8.9 7.3 14.1 4.8 2.5-1.2 4.4-3.4 5.3-6a10.55 10.55 0 0 0-.5-8L105.9 336c-3.4-6.9-10.3-11.2-18-11.2s-14.6 4.3-18 11.2l-17.1 34.7-38.6 5.3C6.6 377.1.4 382.3-2 389.7c-2.4 7.3-.4 15.2 5.1 20.6l27.7 27-6.5 38.2c-1.3 7.6 1.8 15.1 8 19.6 3.5 2.5 7.5 3.9 11.8 3.9 3.2 0 6.5-.8 9.4-2.3l34.3-18 34.3 18c3 1.6 6.2 2.3 9.4 2.3 4.1 0 8.3-1.3 11.8-3.9 6.2-4.5 9.3-12.1 8-19.6l-6.5-38.2 11.6-11.3c2-2 3.1-4.6 3.2-7.4-.3-2.8-1.3-5.4-3.3-7.4zM514 389.7c-2.4-7.3-8.6-12.6-16.2-13.7l-38.3-5.6-17.1-34.7c-3.4-6.9-10.3-11.2-18-11.2s-14.6 4.3-18 11.2l-17.1 34.7c-2.6 5.2-.4 11.5 4.8 14.1 2.5 1.2 5.4 1.4 8 .5 2.7-.9 4.8-2.8 6-5.3l16.3-33.1 18.8 38c1.5 3.1 4.5 5.2 7.9 5.7l41.9 6.1-30.3 29.6c-2.5 2.4-3.6 5.9-3 9.3l7.2 41.8-37.5-19.7a10.6 10.6 0 0 0-9.8 0l-37.5 19.7 7.2-41.8c.6-3.4-.5-6.9-3-9.3l-15.8-15c-2-2-4.7-3-7.5-3s-5.4 1.2-7.4 3.2-3 4.7-3 7.5 1.2 5.4 3.2 7.4l11.6 11.3-6.5 38.2c-1.3 7.6 1.8 15.1 8 19.6a19.65 19.65 0 0 0 11.8 3.9c3.2 0 6.4-.8 9.4-2.3l34.3-18 34.3 18c2.9 1.5 6.1 2.3 9.4 2.3a19.65 19.65 0 0 0 11.8-3.9c6.2-4.5 9.3-12.1 8-19.6l-6.5-38.2 27.7-27c5.3-5.5 7.3-13.4 4.9-20.7z" fill="#212f3d"/><path d="M186.6 473.4l11.2-65.4c.6-3.4-.5-6.9-3-9.3l-47.5-46.3c-1.1-1.1-1.5-2.5-1-4s1.6-2.4 3.1-2.6l65.7-9.5c3.4-.5 6.4-2.6 7.9-5.7l29.4-59.5c.7-1.4 1.9-2.2 3.5-2.2s2.8.8 3.5 2.2l29.4 59.5c1.5 3.1 4.5 5.2 7.9 5.7l65.7 9.5c1.5.2 2.7 1.2 3.1 2.6.5 1.5.1 2.9-1 4L317 398.7c-2.5 2.4-3.6 5.9-3 9.3l11.2 65.4c.3 1.5-.3 2.9-1.5 3.8s-2.7 1-4.1.3l-58.7-30.9c-1.5-.8-3.2-1.2-4.9-1.2s-3.4.4-4.9 1.2l-58.7 30.9c-1.4.7-2.8.6-4.1-.3-1.4-.9-1.9-2.3-1.7-3.8z" fill="#4ceecf"/></svg>