<svg xmlns="http://www.w3.org/2000/svg" viewBox="0 0 512 512"><path d="M148.1 451.9c-70.6 0-128.1-57.4-128.1-128s57.4-128.1 128.1-128.1c36.6 0 70.8 15.3 95.1 42.3-2.7 3.8-5.2 7.6-7.5 11.7-19.8 34.3-25 74.2-14.8 112.4 4.7 17.5 12.4 33.5 22.3 47.5-24.3 26.9-58.6 42.2-95.1 42.2z" fill="#4ceecf"/><path d="M108 291.3c-1.9-1.9-4.4-2.9-7.1-2.9-2.6 0-5.2 1.1-7.1 2.9-1.9 1.9-2.9 4.4-2.9 7.1 0 2.6 1.1 5.2 2.9 7.1 1.9 1.9 4.4 2.9 7.1 2.9s5.2-1.1 7.1-2.9c1.9-1.9 2.9-4.4 2.9-7.1s-1.1-5.3-2.9-7.1zm94.3 0c-1.9-1.9-4.4-2.9-7.1-2.9-2.6 0-5.2 1.1-7.1 2.9-1.9 1.9-2.9 4.4-2.9 7.1 0 2.6 1.1 5.2 2.9 7.1 1.9 1.9 4.4 2.9 7.1 2.9s5.2-1.1 7.1-2.9c1.9-1.9 2.9-4.5 2.9-7.1 0-2.7-1-5.3-2.9-7.1zM184 346.2c-5.3-1.4-10.8 1.7-12.2 7.1-2.9 10.7-12.6 18.2-23.6 18.2-11.1 0-20.8-7.5-23.6-18.2-1.4-5.3-6.9-8.5-12.2-7.1s-8.5 6.9-7.1 12.2c5.2 19.4 22.9 33 43 33s37.8-13.6 43-33c1.2-5.3-2-10.8-7.3-12.2zM256.1 40c-5.5 0-10 4.5-10 10v63.5c0 5.5 4.5 10 10 10s10-4.5 10-10V50c0-5.5-4.5-10-10-10zm7.1 101.8c-1.9-1.9-4.4-2.9-7.1-2.9-2.6 0-5.2 1.1-7.1 2.9-1.9 1.9-2.9 4.4-2.9 7.1s1.1 5.2 2.9 7.1c1.9 1.9 4.4 2.9 7.1 2.9 2.6 0 5.2-1.1 7.1-2.9s2.9-4.4 2.9-7.1-1-5.2-2.9-7.1zm-68-10.8l-25.5-25.5a9.97 9.97 0 1 0-14.1 14.1l25.5 25.5c2 2 4.5 2.9 7.1 2.9s5.1-1 7.1-2.9c3.8-3.9 3.8-10.2-.1-14.1zm161.6-25.5a9.96 9.96 0 0 0-14.1 0l-27.2 27.2a9.96 9.96 0 0 0 0 14.1c2 2 4.5 2.9 7.1 2.9s5.1-1 7.1-2.9l27.2-27.2c3.8-3.9 3.8-10.2-.1-14.1zm150.1 180c-21.1-78.9-102.5-125.8-181.4-104.7-27.1 7.3-51 21.7-69.7 41.6-27.9-29.8-66.6-46.6-107.9-46.6C66.4 175.9 0 242.3 0 323.9S66.4 472 148.1 472c41.3 0 80-16.9 108-46.7C283.8 454.7 322.8 472 364 472c12.6 0 25.5-1.6 38.3-5.1 78.8-21.1 125.8-102.5 104.6-181.4zM148.1 452C77.5 452 20 394.5 20 323.9s57.4-128.1 128.1-128.1c36.6 0 70.8 15.3 95.1 42.3-2.7 3.8-5.2 7.6-7.5 11.7-19.8 34.3-25 74.2-14.8 112.4 4.7 17.5 12.4 33.5 22.3 47.5-24.3 27-58.6 42.3-95.1 42.3zm249-4.4c-68.2 18.3-138.6-22.3-156.8-90.6-8.9-33-4.3-67.6 12.8-97.2 3.2-5.5 6.7-10.6 10.5-15.5.2-.2.3-.4.5-.6 16.9-21.2 40.1-36.4 66.8-43.6 11.1-3 22.2-4.4 33.1-4.4 56.5 0 108.4 37.8 123.7 94.9 18.2 68.3-22.4 138.7-90.6 157zm-62.5-143.4c-3.1-11.6-15-18.4-26.6-15.3s-18.4 15-15.3 26.6c1.2 4.5 5.2 7.4 9.7 7.4.9 0 1.7-.1 2.6-.3 5.3-1.4 8.5-6.9 7.1-12.3a1.79 1.79 0 0 1 1.2-2.1c.6-.1 1 0 1.3.2s.6.5.8 1c1.4 5.3 6.9 8.5 12.3 7.1 5.2-1.4 8.3-6.9 6.9-12.3zm90.6-24.2a21.66 21.66 0 0 0-10.1-13.2 21.63 21.63 0 0 0-16.5-2.2 21.66 21.66 0 0 0-13.2 10.1 21.63 21.63 0 0 0-2.2 16.5c1.2 4.5 5.2 7.4 9.7 7.4.9 0 1.7-.1 2.6-.3 5.3-1.4 8.5-6.9 7.1-12.3-.1-.6 0-1 .2-1.3s.5-.6 1-.8c.6-.1 1 0 1.3.2s.6.5.8 1c1.4 5.3 6.9 8.5 12.3 7.1 5.2-1.4 8.4-6.9 7-12.2zm-8.8 62.8c-1.4-5.3-6.9-8.5-12.3-7.1-5.3 1.4-8.5 6.9-7.1 12.3 3.4 12.7-4.2 25.8-16.9 29.2-6.2 1.6-12.6.8-18.1-2.4s-9.5-8.3-11.1-14.5c-1.4-5.3-6.9-8.5-12.3-7.1-5.3 1.4-8.5 6.9-7.1 12.3a43.39 43.39 0 0 0 20.4 26.6c6.8 3.9 14.3 5.9 21.9 5.9 3.8 0 7.6-.5 11.4-1.5 23.6-6.3 37.5-30.4 31.2-53.7z" fill="#212f3d"/></svg>