<svg xmlns="http://www.w3.org/2000/svg" xmlns:xlink="http://www.w3.org/1999/xlink" viewBox="0 0 512 512"><path d="M377 491.5c-64.7 0-117.4-51.4-117.4-114.5 0-63.2 52.7-114.5 117.4-114.5S494.4 313.8 494.4 377 441.7 491.5 377 491.5z" fill="#4ceecf"/><g fill="#212f3d"><path d="M482 292.3V46a14.98 14.98 0 0 0-15-15h-76V15a15 15 0 1 0-30 0v16h-60V15a15 15 0 1 0-30 0v16h-60V15a15 15 0 1 0-30 0v16h-60V15a15 15 0 1 0-30 0v16H15A14.98 14.98 0 0 0 0 46v391a14.98 14.98 0 0 0 15 15h249.8c24.2 36.2 65.5 60 112.2 60 74.4 0 135-60.6 135-135 0-32.1-11.2-61.6-30-84.7zM91 61v15a15 15 0 1 0 30 0V61h60v15a15 15 0 1 0 30 0V61h60v15a15 15 0 1 0 30 0V61h60v15a15 15 0 1 0 30 0V61h61v60H30V61h61zM30 422V151h422v113.8c-21.5-14.4-47.3-22.8-75-22.8-47.4 0-89.2 24.6-113.3 61.6a15.04 15.04 0 0 0-6.7-1.6h-30a15 15 0 1 0 0 30h22.7c-3.4 9.6-5.7 19.6-6.9 30H227a15 15 0 1 0 0 30h15.8c1.2 10.4 3.5 20.4 6.9 30H30zm347 60c-57.9 0-105-47.1-105-105s47.1-105 105-105 105 47.1 105 105-47.1 105-105 105zm60-120h-45v-45a15 15 0 1 0-30 0v60a14.98 14.98 0 0 0 15 15h60a15 15 0 1 0 0-30z"/><use xlink:href="#B"/><use xlink:href="#B" y="60"/><use xlink:href="#B" y="120"/><use xlink:href="#C"/><use xlink:href="#C" y="60"/><use xlink:href="#B" y="180"/><use xlink:href="#C" x="120"/></g><defs ><path id="B" d="M136 182h-30a14.98 14.98 0 1 0 0 30h30a14.98 14.98 0 1 0 0-30z"/><path id="C" d="M227 212h30a14.98 14.98 0 1 0 0-30h-30a14.98 14.98 0 1 0 0 30z"/></defs></svg>