<?xml version="1.0" standalone="no"?>
<!DOCTYPE svg PUBLIC "-//W3C//DTD SVG 20010904//EN"
 "http://www.w3.org/TR/2001/REC-SVG-20010904/DTD/svg10.dtd">
<svg version="1.0" xmlns="http://www.w3.org/2000/svg"
 width="700.000000pt" height="700.000000pt" viewBox="0 0 700.000000 700.000000"
 preserveAspectRatio="xMidYMid meet">
<metadata>
Created by potrace 1.14, written by Peter Selinger 2001-2017
</metadata>
<g transform="translate(0.000000,700.000000) scale(0.100000,-0.100000)"
fill="#000000" stroke="none">
<path d="M0 3500 l0 -3500 3500 0 3500 0 0 3500 0 3500 -3500 0 -3500 0 0
-3500z m1755 1081 c345 -63 558 -198 678 -430 72 -138 104 -279 113 -491 11
-250 -22 -445 -107 -620 -45 -93 -62 -116 -143 -195 -78 -78 -106 -98 -196
-143 -221 -109 -378 -132 -896 -132 l-374 0 0 1013 c0 558 3 1017 8 1021 4 5
187 6 407 3 344 -5 415 -8 510 -26z m1539 -818 c175 -467 321 -851 325 -856 4
-4 151 373 326 837 175 465 321 849 325 856 4 7 53 10 147 8 l140 -3 -387
-1015 -387 -1015 -159 -3 -159 -2 -384 1007 c-211 555 -386 1014 -389 1021 -3
9 29 12 140 12 l143 0 319 -847z m2598 -148 c208 -545 382 -1002 387 -1017
l10 -28 -143 0 -144 0 -50 143 c-28 78 -69 195 -92 260 l-42 117 -461 -2 -460
-3 -91 -257 -91 -258 -148 0 c-82 0 -146 3 -144 8 3 4 172 445 376 980 205
536 379 991 388 1013 l15 39 157 -2 156 -3 377 -990z"/>
<path d="M1110 3586 l0 -796 178 0 c97 0 228 5 291 11 451 42 653 256 678 718
22 421 -122 701 -414 802 -128 44 -180 51 -460 56 l-273 5 0 -796z"/>
<path d="M5169 3827 l-185 -502 369 -3 c204 -1 372 -1 373 1 4 3 -362 996
-369 1003 -2 2 -87 -222 -188 -499z"/>
</g>
</svg>
